# xmcd CD database file
#
# Track frame offsets:
#	150
#	13066
#	22384
#	32807
#	44435
#	55013
#	69656
#	79722
#	91284
#	104360
#	118535
#	128347
#	140871
#	163843
#	181026
#	190079
#	205589
#	217293
#	231334
#	241077
#	256035
#	271673
#	282927
#
# Disc length: 3957 seconds
#
# Revision: 0
# Processed by: cddbd v1.4PL0 Copyright (c) Steve Scherf et al.
# Submitted via: CDex 1.50beta10
#
DISCID=450f7317
DTITLE=J. J. Cale - Platinum
DYEAR=1900
DGENRE=Blues
TTITLE0=Cocaine
TTITLE1=If You're Ever On Oklahoma
TTITLE2=Carry On
TTITLE3=Call Me the Breeze
TTITLE4=Fter Midnight
TTITLE5=Midnight in Memphis
TTITLE6=Cajun Moon
TTITLE7=Crying
TTITLE8=I Got The Same Old Blues
TTITLE9=I'll Make Love To You Anytime
TTITLE10=Don't Cry Sister
TTITLE11=Thirteen Days
TTITLE12=Sensitive Kind
TTITLE13=Mama Don't
TTITLE14=Devil in Disguise
TTITLE15=You Keep Me Hanging On
TTITLE16=A Thing Going On
TTITLE17=Wish I Had Me A Dollar (Live)
TTITLE18=People Lie
TTITLE19=Trouble In The City
TTITLE20=Santa Cruz
TTITLE21=New Orleans
TTITLE22=Artificial Paradise
EXTD=
EXTT0=
EXTT1=
EXTT2=
EXTT3=
EXTT4=
EXTT5=
EXTT6=
EXTT7=
EXTT8=
EXTT9=
EXTT10=
EXTT11=
EXTT12=
EXTT13=
EXTT14=
EXTT15=
EXTT16=
EXTT17=
EXTT18=
EXTT19=
EXTT20=
EXTT21=
EXTT22=
PLAYORDER=
